Coordinates
version=1
nRows=14
nColumns=46
inDegrees=yes

Units are S.I. units (second, meters, Newtons, ...)
Angles are in degrees.

endheader
time	pelvis_tilt	pelvis_list	pelvis_rotation	pelvis_tx	pelvis_ty	pelvis_tz	bb_angle	bb_tx	bb_ty	bb_tz	hip_flexion_r	hip_adduction_r	hip_rotation_r	knee_angle_r	knee_angle_r_beta	ankle_angle_r	subtalar_angle_r	mtp_angle_r	crank_angle_r	hip_flexion_l	hip_adduction_l	hip_rotation_l	knee_angle_l	knee_angle_l_beta	ankle_angle_l	subtalar_angle_l	mtp_angle_l	crank_angle_l	lumbar_extension	lumbar_bending	lumbar_rotation	arm_flex_r	arm_add_r	arm_rot_r	elbow_flex_r	pro_sup_r	wrist_flex_r	wrist_dev_r	arm_flex_l	arm_add_l	arm_rot_l	elbow_flex_l	pro_sup_l	wrist_flex_l	wrist_dev_l
      2.50000000	    -17.87449487	     -0.90254028	     -1.28524117	      0.12311862	      1.13581723	     -0.30200610	      0.00000000	      0.50000000	      0.00000000	      0.25000000	     66.88871241	     -1.71535894	      4.68914497	     56.60090166	      0.98787209	      2.49139501	     -6.74060662	      0.00000000	      0.00000000	     67.01034755	     -8.63347378	     -0.40737711	     92.08041808	      1.60710647	     -2.88589736	     -9.19693203	      0.00000000	      0.00000000	    -56.74066392	      4.19665091	     -3.40237971	     82.40962070	    -12.31207922	     34.57511654	     66.28065364	     45.42208151	      0.00000000	      0.00000000	     74.65350654	    -34.99423813	     33.69413835	     70.76644561	     49.38619693	      0.00000000	      0.00000000
      2.50500000	    -17.61006213	     -0.65655739	     -1.09979110	      0.12426305	      1.13660596	     -0.30235875	      0.00000000	      0.50000000	      0.00000000	      0.25000000	     65.83144835	     -2.19280429	      4.53457768	     55.43766708	      0.96756982	      1.52718679	     -6.50675394	      0.00000000	      0.00000000	     67.37320083	     -8.40229396	     -0.49267753	     93.10342123	      1.62496125	     -2.75220252	     -9.12152625	      0.00000000	      0.00000000	    -56.94059816	      4.07961571	     -3.75210822	     82.24822235	    -12.21736885	     34.42140799	     66.10999641	     45.38642851	      0.00000000	      0.00000000	     74.66366700	    -34.89491250	     33.70106165	     70.80349358	     49.41001924	      0.00000000	      0.00000000
      2.51000000	    -17.33357001	     -0.41999043	     -0.90495129	      0.12535863	      1.13734135	     -0.30261689	      0.00000000	      0.50000000	      0.00000000	      0.25000000	     64.75853745	     -2.65898107	      4.36378788	     54.30475074	      0.94779670	      0.55618009	     -6.16948385	      0.00000000	      0.00000000	     67.74130747	     -8.17621837	     -0.52630071	     94.11169756	      1.64255899	     -2.63450570	     -9.01373930	      0.00000000	      0.00000000	    -57.14263232	      3.92983734	     -4.14004059	     82.07741692	    -12.14751030	     34.26612825	     65.91850973	     45.34754979	      0.00000000	      0.00000000	     74.68035409	    -34.77964180	     33.71116434	     70.80626171	     49.42804117	      0.00000000	      0.00000000
      2.51500000	    -17.15175705	     -0.10345117	     -0.85266640	      0.12639310	      1.13774158	     -0.30303312	      0.00000000	      0.50000000	      0.00000000	      0.25000000	     63.83866573	     -3.09458938	      4.27056378	     53.25738629	      0.92951674	     -0.22807415	     -5.75519423	      0.00000000	      0.00000000	     68.22674082	     -8.00537567	     -0.68198338	     95.17808070	      1.66117088	     -2.55634288	     -8.95734231	      0.00000000	      0.00000000	    -57.23181837	      3.64634963	     -4.55137949	     81.97221899	    -12.13941125	     34.18404170	     65.80831960	     45.32631491	      0.00000000	      0.00000000	     74.62986273	    -34.63470801	     33.75467383	     70.79501124	     49.44065933	      0.00000000	      0.00000000
      2.52000000	    -16.63621710	      0.03003481	     -0.49668822	      0.12734424	      1.13900152	     -0.30298289	      0.00000000	      0.50000000	      0.00000000	      0.25000000	     62.41593190	     -3.60990731	      3.89848587	     52.04574851	      0.90836967	     -1.20184319	     -5.55902938	      0.00000000	      0.00000000	     68.38207924	     -7.76222364	     -0.56135537	     96.11470563	      1.67751807	     -2.33691007	     -8.62423621	      0.00000000	      0.00000000	    -57.69267331	      3.66950036	     -4.95303737	     81.87735045	    -11.57525002	     33.66490474	     65.12376879	     45.19510202	      0.00000000	      0.00000000	     74.85945211	    -34.52984605	     33.68274137	     70.46396927	     49.46003682	      0.00000000	      0.00000000
      2.52500000	    -16.52919600	      0.31959289	     -0.33639320	      0.12822223	      1.13936686	     -0.30298137	      0.00000000	      0.50000000	      0.00000000	      0.25000000	     61.52972630	     -4.06445278	      3.75994887	     50.95644307	      0.88935771	     -1.99878605	     -5.09384025	      0.00000000	      0.00000000	     68.97570779	     -7.56037189	     -0.64225517	     97.08349681	      1.69442667	     -2.27882912	     -8.49888566	      0.00000000	      0.00000000	    -57.68653172	      3.37923478	     -5.39149651	     81.63769330	    -11.59179645	     33.66449015	     65.01904502	     45.18596052	      0.00000000	      0.00000000	     74.82811027	    -34.38236004	     33.75202263	     70.46703885	     49.47997934	      0.00000000	      0.00000000
      2.53000000	    -16.40017294	      0.55778993	     -0.12256537	      0.12921140	      1.13983224	     -0.30308880	      0.00000000	      0.50000000	      0.00000000	      0.25000000	     60.57620931	     -4.56080061	      3.49657495	     49.83520053	      0.86978833	     -2.86569620	     -4.60719986	      0.00000000	      0.00000000	     69.55387331	     -7.38113189	     -0.71302298	     98.03135563	      1.71096993	     -2.14668199	     -8.23096582	      0.00000000	      0.00000000	    -57.71524964	      3.23684888	     -5.72414441	     81.35091103	    -11.54098744	     33.62689071	     64.89841283	     45.17136493	      0.00000000	      0.00000000	     74.81771776	    -34.24882634	     33.76732355	     70.43914107	     49.48703132	      0.00000000	      0.00000000
      2.53500000	    -16.24978373	      0.76810634	      0.10279182	      0.13001775	      1.14033025	     -0.30316281	      0.00000000	      0.50000000	      0.00000000	      0.25000000	     59.59124280	     -5.02323817	      3.23975636	     48.71907153	      0.85030821	     -3.68642082	     -4.17906083	      0.00000000	      0.00000000	     70.13584837	     -7.18322404	     -0.70521063	     98.96079072	      1.72719163	     -1.97871510	     -7.95687604	      0.00000000	      0.00000000	    -57.77829069	      3.08773055	     -6.10667735	     81.11885203	    -11.50743844	     33.54587599	     64.79111017	     45.15289195	      0.00000000	      0.00000000	     74.81134872	    -34.09614490	     33.76461700	     70.39860255	     49.48423676	      0.00000000	      0.00000000
      2.54000000	    -15.85710631	      0.78986179	      0.44113215	      0.13071032	      1.14123826	     -0.30333246	      0.00000000	      0.50000000	      0.00000000	      0.25000000	     58.28345343	     -5.44978232	      2.73006160	     47.57484222	      0.83033764	     -4.56250599	     -3.93410483	      0.00000000	      0.00000000	     70.52327513	     -6.98863891	     -0.46494576	     99.89624560	      1.74351840	     -1.63919739	     -7.30873739	      0.00000000	      0.00000000	    -58.13639761	      3.19206209	     -6.36629735	     81.12187843	    -11.27878731	     33.34142598	     64.42179624	     45.09113174	      0.00000000	      0.00000000	     75.00514596	    -33.94611692	     33.77121648	     70.13553754	     49.47680266	      0.00000000	      0.00000000
      2.54500000	    -15.55027261	      0.99580522	      0.74797613	      0.13117209	      1.14215881	     -0.30339874	      0.00000000	      0.50000000	      0.00000000	      0.25000000	     57.10812234	     -5.96051800	      2.39383600	     46.43865691	      0.81050746	     -5.42265991	     -3.48751332	      0.00000000	      0.00000000	     70.94855094	     -6.72304190	     -0.43805038	    100.72922411	      1.75805661	     -1.42020385	     -7.06229971	      0.00000000	      0.00000000	    -58.39842689	      3.10394352	     -6.76090951	     81.04032857	    -11.12823824	     33.14310606	     64.05352395	     45.03154843	      0.00000000	      0.00000000	     75.22201890	    -33.76166375	     33.80951742	     69.90805546	     49.46949630	      0.00000000	      0.00000000
      2.55000000	    -15.58242691	      1.27117095	      0.92989304	      0.13180304	      1.14227794	     -0.30337772	      0.00000000	      0.50000000	      0.00000000	      0.25000000	     56.35249969	     -6.38856500	      2.25480902	     45.40565167	      0.79247812	     -6.16333705	     -3.00007275	      0.00000000	      0.00000000	     71.72559174	     -6.55366420	     -0.56300316	    101.57631686	      1.77284117	     -1.24261703	     -6.89468336	      0.00000000	      0.00000000	    -58.26988652	      2.84983240	     -7.14740914	     80.73323934	    -11.13486170	     33.00738094	     63.98852286	     45.01383700	      0.00000000	      0.00000000	     75.18976894	    -33.60016260	     33.77440865	     69.90294180	     49.45450115	      0.00000000	      0.00000000
      2.55500000	    -15.53432308	      1.46958113	      1.15433196	      0.13220409	      1.14259247	     -0.30339130	      0.00000000	      0.50000000	      0.00000000	      0.25000000	     55.50492702	     -6.80151684	      2.03869034	     44.38711805	      0.77470136	     -6.98957601	     -2.48654494	      0.00000000	      0.00000000	     72.45755014	     -6.37156626	     -0.60409453	    102.38513735	      1.78695775	     -1.11630343	     -6.61036941	      0.00000000	      0.00000000	    -58.23886434	      2.66992714	     -7.53121922	     80.52366276	    -11.13250253	     32.87485712	     63.88563579	     44.98988526	      0.00000000	      0.00000000	     75.26294769	    -33.42374663	     33.75401475	     69.86591369	     49.43900109	      0.00000000	      0.00000000
      2.56000000	    -15.22468231	      1.44297460	      1.57883011	      0.13258601	      1.14340071	     -0.30381383	      0.00000000	      0.50000000	      0.00000000	      0.25000000	     54.26715230	     -7.25157760	      1.34972924	     43.26292368	      0.75508046	     -7.92588042	     -2.20426541	      0.00000000	      0.00000000	     72.96606327	     -6.08567045	     -0.33143123	    103.18275014	      1.80087872	     -0.83472579	     -6.05502516	      0.00000000	      0.00000000	    -58.52011606	      2.88640775	     -7.72471751	     80.51322985	    -10.98493428	     32.62308636	     63.45706721	     44.91366465	      0.00000000	      0.00000000	     75.55021507	    -33.21175437	     33.90896827	     69.53541956	     49.42344771	      0.00000000	      0.00000000
      2.56500000	    -15.24028708	      1.64209826	      1.79387318	      0.13286678	      1.14364232	     -0.30379569	      0.00000000	      0.50000000	      0.00000000	      0.25000000	     53.50244399	     -7.62687150	      1.16845966	     42.29171785	      0.73812972	     -8.71462614	     -1.71566107	      0.00000000	      0.00000000	     73.75042365	     -5.92624464	     -0.42443432	    103.91081840	      1.81358591	     -0.64183259	     -5.93862326	      0.00000000	      0.00000000	    -58.44779348	      2.69035997	     -8.07235847	     80.32701527	    -11.01860226	     32.51811297	     63.29558923	     44.88545908	      0.00000000	      0.00000000	     75.68749469	    -33.05455509	     33.95465212	     69.48885293	     49.42266209	      0.00000000	      0.00000000
